<svg width="128" height="128" viewBox="0 0 128 128" fill="none" xmlns="http://www.w3.org/2000/svg">
  <rect width="128" height="128" rx="36" fill="url(#g)"/>
  <path d="M92.9 40.8C86.8 38 80.3 36 73.5 35.1C72.7 36.6 71.7 38.7 71 40.3C63.7 39.2 56.4 39.2 49.2 40.3C48.5 38.7 47.5 36.6 46.7 35.1C39.9 36 33.4 38 27.3 40.8C15 59.2 11.6 77.2 13.3 94.9C21.4 100.9 29.2 104.5 36.9 106.9C38.8 104.3 40.5 101.5 42 98.6C39.2 97.5 36.5 96.2 34 94.6C34.7 94.1 35.3 93.6 35.9 93.1C51.5 100.3 68.4 100.3 83.8 93.1C84.4 93.6 85.1 94.1 85.7 94.6C83.2 96.2 80.5 97.6 77.7 98.6C79.2 101.5 80.9 104.3 82.8 106.9C90.5 104.5 98.4 100.9 106.4 94.9C108.5 74.3 102.9 56.5 92.9 40.8ZM44.7 84C40.1 84 36.4 79.8 36.4 74.6C36.4 69.4 40 65.2 44.7 65.2C49.4 65.2 53.1 69.5 53 74.6C53 79.8 49.4 84 44.7 84ZM83.5 84C78.9 84 75.2 79.8 75.2 74.6C75.2 69.4 78.8 65.2 83.5 65.2C88.2 65.2 91.9 69.5 91.8 74.6C91.8 79.8 88.2 84 83.5 84Z" fill="white"/>
  <defs><linearGradient id="g" x1="13" y1="12" x2="115" y2="118" gradientUnits="userSpaceOnUse"><stop stop-color="#00E5FF"/><stop offset="0.55" stop-color="#25A7FF"/><stop offset="1" stop-color="#5D5FEF"/></linearGradient></defs>
</svg>
